<svg id="Capa_1" enable-background="new 0 0 50 50" height="22" viewBox="0 0 512 512" width="22" xmlns="http://www.w3.org/2000/svg">
<g>
<path d="m384 65h-33v-35c0-16.542-13.458-30-30-30h-130c-16.542 0-30 13.458-30 30v35h-33c-43.561 0-79 35.439-79 79 0 8.284 6.716 15 15 15h18.299l30.763 339.354c.7 7.728 7.178 13.646 14.938 13.646h256c7.76 0 14.238-5.918 14.938-13.646l30.763-339.354h18.299c8.284 0 15-6.716 15-15 0-43.561-35.439-79-79-79zm-193.019-34.999c.105-.017 8.816-.001 130.019-.001v35h-130.006zm-62.981 64.999h256c21.789 0 40.303 14.295 46.652 34-49.159 0-300.851 0-349.305 0 6.35-19.705 24.864-34 46.653-34zm242.298 387h-228.596l-29.281-323h287.158z"/>
<path d="m256 447c8.284 0 15-6.716 15-15v-176c0-8.284-6.716-15-15-15s-15 6.716-15 15v176c0 8.284 6.716 15 15 15z"/>
<path d="m177.062 433.358c.749 8.241 8.037 14.331 16.297 13.581 8.25-.75 14.33-8.046 13.58-16.296l-16-176c-.75-8.251-8.058-14.331-16.297-13.581-8.25.75-14.33 8.046-13.58 16.296z"/>
<path d="m318.642 446.938c8.318.755 15.553-5.397 16.297-13.581l16-176c.75-8.25-5.33-15.546-13.58-16.296-8.261-.752-15.547 5.331-16.297 13.581l-16 176c-.75 8.25 5.33 15.546 13.58 16.296z"/>
</g>
</svg>